<?xml version="1.0" encoding="UTF-8" standalone="no"?>
<!-- Generator: Adobe Illustrator 19.2.1, SVG Export Plug-In . SVG Version: 6.00 Build 0)  -->

<svg
   version="1.1"
   id="Layer_1"
   x="0px"
   y="0px"
   viewBox="0 0 120 33"
   xml:space="preserve"
   sodipodi:docname="topbar-logo-inkscape.svg"
   width="120"
   height="33"
   inkscape:version="1.3 (0e150ed6c4, 2023-07-21)"
   xmlns:inkscape="http://www.inkscape.org/namespaces/inkscape"
   xmlns:sodipodi="http://sodipodi.sourceforge.net/DTD/sodipodi-0.dtd"
   xmlns="http://www.w3.org/2000/svg"
   xmlns:svg="http://www.w3.org/2000/svg"><defs
   id="defs29" /><sodipodi:namedview
   id="namedview29"
   pagecolor="#ffffff"
   bordercolor="#666666"
   borderopacity="1.0"
   inkscape:showpageshadow="2"
   inkscape:pageopacity="0.0"
   inkscape:pagecheckerboard="0"
   inkscape:deskcolor="#d1d1d1"
   inkscape:zoom="5.1933333"
   inkscape:cx="95.025674"
   inkscape:cy="59.403081"
   inkscape:window-width="1920"
   inkscape:window-height="1017"
   inkscape:window-x="-8"
   inkscape:window-y="-8"
   inkscape:window-maximized="1"
   inkscape:current-layer="Layer_1" />&#10;<style
   type="text/css"
   id="style1">&#10;	.st0{fill:#7C634F;}&#10;	.st1{fill:#D0D2D3;}&#10;	.st2{fill:#6ECAF3;}&#10;	.st3{fill:#CED0D1;}&#10;	.st4{fill:#F6CC78;}&#10;	.st5{fill:#BBBDBF;}&#10;	.st6{fill:#58595B;}&#10;	.st7{fill:#FFB4D3;}&#10;	.st8{fill:#A6A8AB;}&#10;	.st9{opacity:0.2;fill:#FFFFFF;}&#10;	.st10{fill:#4F3E31;}&#10;	.st11{fill:#EBEBEC;}&#10;	.st12{fill:#E0E1E2;}&#10;	.st13{fill:#D1D2D4;}&#10;	.st14{fill:#534235;}&#10;	.st15{fill:#4A3A2E;}&#10;	.st16{fill:#F8C1D9;}&#10;	.st17{fill:#FFFFFF;}&#10;	.st18{fill:#E4E5E6;}&#10;	.st19{fill:#836854;}&#10;	.st20{fill:#745D4A;}&#10;	.st21{fill:#F3A5C8;}&#10;	.st22{fill:#66493C;}&#10;	.st23{fill:#6F5043;}&#10;	.st24{fill:#4C3C34;}&#10;	.st25{fill:#F4F4F6;}&#10;	.st26{fill:#F8F8F9;}&#10;	.st27{fill:#EBEBEE;}&#10;	.st28{fill:#DFDFE0;}&#10;	.st29{fill:#86888A;}&#10;	.st30{fill:#A54B94;}&#10;	.st31{fill:#D4BC9B;}&#10;	.st32{fill:#A55498;}&#10;	.st33{fill:#D3A561;}&#10;	.st34{fill:#C7B192;}&#10;	.st35{fill:#DCC6A9;}&#10;	.st36{fill:#D3AD72;}&#10;	.st37{fill:#CAB4FF;}&#10;	.st38{fill:#C6A9FF;}&#10;	.st39{fill:#765C60;}&#10;	.st40{fill:#864481;}&#10;	.st41{fill:#AE8950;}&#10;	.st42{fill:#AA8CE1;}&#10;	.st43{fill:#846255;}&#10;	.st44{fill:#6AAB98;}&#10;	.st45{fill:#F5887A;}&#10;	.st46{fill:#8C685B;}&#10;	.st47{fill:#77584D;}&#10;	.st48{fill:#F69788;}&#10;	.st49{fill:#E07D70;}&#10;	.st50{fill:#7CB0A7;}&#10;	.st51{fill:#619E8D;}&#10;	.st52{fill:#70524E;}&#10;	.st53{fill:#A78AF2;}&#10;	.st54{fill:#50DB7E;}&#10;	.st55{fill:#FBC2F2;}&#10;	.st56{fill:#ECF4F9;}&#10;	.st57{fill:#987EE7;}&#10;	.st58{fill:#FBB0F2;}&#10;	.st59{fill:#AC92FF;}&#10;	.st60{fill:#5C76AA;}&#10;	.st61{fill:#00B8ED;}&#10;	.st62{fill:#EFEFF0;}&#10;	.st63{fill:#CDAA6F;}&#10;	.st64{fill:#5E8664;}&#10;	.st65{fill:#644F3B;}&#10;	.st66{fill:#785E47;}&#10;	.st67{fill:#5C4936;}&#10;	.st68{fill:#6A533E;}&#10;	.st69{fill:#80654D;}&#10;	.st70{fill:#544835;}&#10;	.st71{fill:#D8468E;}&#10;	.st72{fill:#5AD83F;}&#10;	.st73{fill:#47C93F;}&#10;	.st74{fill:#1CB14B;}&#10;	.st75{fill:#D1FF25;}&#10;	.st76{fill:#FF86B5;}&#10;	.st77{fill:#F086B5;}&#10;	.st78{fill:#F0F1F1;}&#10;	.st79{fill:#F580B5;}&#10;	.st80{fill:#E5E6E7;}&#10;	.st81{fill:#E67CAD;}&#10;	.st82{fill:#D46CAD;}&#10;	.st83{fill:#796F6C;}&#10;	.st84{fill:#0E86FE;}&#10;	.st85{fill:#C93131;}&#10;	.st86{fill:#B83131;}&#10;	.st87{fill:#E5E5E5;}&#10;	.st88{fill:#0E7FFB;}&#10;	.st89{fill:#DBDCDD;}&#10;	.st90{fill:none;stroke:#8D382D;stroke-width:4;stroke-linecap:round;stroke-linejoin:round;stroke-miterlimit:10;}&#10;	.st91{fill:none;stroke:#0E6CFE;stroke-width:4;stroke-linecap:round;stroke-linejoin:round;stroke-miterlimit:10;}&#10;	.st92{fill:none;stroke:#BBBDBF;stroke-width:4;stroke-linecap:round;stroke-linejoin:round;stroke-miterlimit:10;}&#10;	.st93{fill:none;stroke:#A6A8AB;stroke-width:4;stroke-linecap:round;stroke-linejoin:round;stroke-miterlimit:10;}&#10;	.st94{fill:#701F2F;}&#10;	.st95{fill:#1C3B71;}&#10;	.st96{fill:#214181;}&#10;	.st97{fill:#621221;}&#10;	.st98{fill:#231F20;}&#10;	.st99{fill:#31DCFF;}&#10;	.st100{fill:#80192B;}&#10;	.st101{fill:#80994A;}&#10;	.st102{fill:#6B192B;}&#10;	.st103{fill:#5E7031;}&#10;	.st104{fill:#58192B;}&#10;	.st105{fill:#68E674;}&#10;	.st106{fill:#FD7C91;}&#10;	.st107{fill:#27A5FF;}&#10;	.st108{fill:#B081E3;}&#10;	.st109{fill:#FFEB26;}&#10;	.st110{fill:#FFF04D;}&#10;	.st111{fill:#FFDE00;}&#10;	.st112{fill:#FFD906;}&#10;	.st113{fill:#EFBD55;}&#10;	.st114{fill:#E2AD41;}&#10;	.st115{fill:#D69E36;}&#10;	.st116{fill:#CE9333;}&#10;	.st117{fill:#F2829E;}&#10;	.st118{fill:#FED77E;}&#10;	.st119{fill:#FECC71;}&#10;	.st120{fill:#FEC471;}&#10;	.st121{fill:#F4CFB4;}&#10;	.st122{fill:#F2729E;}&#10;	.st123{fill:#9FA2A0;}&#10;	.st124{fill:#E8C0A5;}&#10;	.st125{fill:#D97CFF;}&#10;	.st126{fill:#D1C6C1;}&#10;	.st127{fill:#C0B6B2;}&#10;	.st128{fill:#FAAF40;}&#10;	.st129{fill:#F3AA3F;}&#10;	.st130{fill:#F3F4F4;}&#10;	.st131{fill:#9A8479;}&#10;	.st132{fill:#99EC9B;}&#10;	.st133{fill:#FF9AB5;}&#10;	.st134{fill:#F38DB0;}&#10;	.st135{fill:#8ED79B;}&#10;	.st136{fill:#FFAAC4;}&#10;	.st137{fill:#B9F6AB;}&#10;	.st138{fill:#6D6E71;}&#10;	.st139{fill:#93A8BE;}&#10;	.st140{fill:#8CA1B7;}&#10;	.st141{fill:#718AA2;}&#10;	.st142{fill:#9D5388;}&#10;	.st143{fill:#8E4A7C;}&#10;	.st144{fill:#FFED79;}&#10;	.st145{fill:#B90B22;}&#10;	.st146{fill:#FFE45C;}&#10;	.st147{fill:#A60014;}&#10;	.st148{fill:#C2172A;}&#10;	.st149{fill:none;stroke:#FFDB17;stroke-width:4;stroke-linecap:round;stroke-linejoin:round;stroke-miterlimit:10;}&#10;	.st150{fill:#FFDB17;}&#10;	.st151{fill:#8B0002;}&#10;	.st152{fill:#A0C863;}&#10;	.st153{fill:#BAE063;}&#10;	.st154{fill:#9AC058;}&#10;	.st155{fill:#92B951;}&#10;	.st156{fill:#D0EF83;}&#10;	.st157{fill:#729040;}&#10;</style>&#10;<g
   id="g29"
   transform="matrix(0.21705856,0,0,0.21705856,0.21431211,0.220608)"
   style="stroke-width:4.60707">&#10;	<g
   id="g20"
   style="stroke-width:4.60707">&#10;		<path
   class="st152"
   d="M 77.64,11.41 77.25,11.5 H 68.6 61.9 51.33 C 52.7,5.48 58.07,1 64.5,1 70.89,1 76.25,5.44 77.64,11.41 Z"
   id="path1"
   style="stroke-width:4.60707" />&#10;		<path
   class="st152"
   d="m 152.42,69.99 c 6.65,5.16 -0.05,24.96 -14.98,44.22 -5.36,6.92 -11.05,12.83 -16.45,17.33 v 0.36 l 6.24,0.52 c 2.2,0.22 4.14,1.26 5.53,2.79 1.39,1.54 2.23,3.57 2.23,5.79 h -18.01 c -4.41,0 -7.99,-3.58 -7.99,-7.99 V 125 l -0.36,-0.57 C 125.64,114.08 137,95.37 137,74 c 0,-0.34 0,-0.67 -0.02,-1 H 137 l 0.99,-0.64 c 6.2,-3.64 11.42,-4.7 14.43,-2.37 z"
   id="path2"
   style="stroke-width:4.60707" />&#10;		<path
   class="st152"
   d="m 94,130.8 c -5.09,1.44 -10.45,2.2 -16,2.2 -5.54,0 -10.91,-0.76 -15.99,-2.19 H 62 V 144 h -0.02 c -0.37,2.8 -3.8,5 -7.97,5 -4.43,0 -8.01,-2.46 -8.01,-5.5 0,-2.52 2.46,-4.64 5.82,-5.29 L 51,126.47 c -1.24,-0.64 -2.45,-1.32 -3.64,-2.04 C 30.36,114.08 19,95.37 19,74 19,73.66 19,73.33 19.02,73 19.39,50.15 32.75,30.46 52.05,21 l 0.58,-0.06 C 54.91,25.15 59.37,28 64.5,28 71.96,28 78,21.96 78,14.5 78,21.96 84.04,28 91.5,28 c 5.13,0 9.59,-2.85 11.87,-7.06 l 0.58,0.06 c 19.3,9.46 32.66,29.15 33.03,52 0.02,0.33 0.02,0.66 0.02,1 0,21.37 -11.36,40.08 -28.37,50.43 -1.18,0.72 -2.39,1.4 -3.63,2.04 l -0.82,11.74 c 3.36,0.65 5.82,2.77 5.82,5.29 0,3.04 -3.58,5.5 -8.01,5.5 -4.17,0 -7.6,-2.2 -7.97,-5 H 94 Z m 32,-49.3 c 0,-1.93 -1.57,-3.5 -3.5,-3.5 -1.93,0 -3.5,1.57 -3.5,3.5 0,1.93 1.57,3.5 3.5,3.5 1.93,0 3.5,-1.57 3.5,-3.5 z m -5,14 c 0,-0.83 -0.67,-1.5 -1.5,-1.5 -0.83,0 -1.5,0.67 -1.5,1.5 0,0.83 0.67,1.5 1.5,1.5 0.83,0 1.5,-0.67 1.5,-1.5 z m -3,-27 c 0,-0.83 -0.67,-1.5 -1.5,-1.5 -0.83,0 -1.5,0.67 -1.5,1.5 0,0.83 0.67,1.5 1.5,1.5 0.83,0 1.5,-0.67 1.5,-1.5 z M 116,86 c 0,-3.31 -2.69,-6 -6,-6 -3.31,0 -6,2.69 -6,6 0,3.31 2.69,6 6,6 3.31,0 6,-2.69 6,-6 z M 101,78.5 C 101,76.57 99.43,75 97.5,75 95.57,75 94,76.57 94,78.5 c 0,1.93 1.57,3.5 3.5,3.5 1.93,0 3.5,-1.57 3.5,-3.5 z m -14,11 C 87,88.67 86.33,88 85.5,88 84.67,88 84,88.67 84,89.5 c 0,0.83 0.67,1.5 1.5,1.5 0.83,0 1.5,-0.67 1.5,-1.5 z"
   id="path3"
   style="stroke-width:4.60707" />&#10;		<circle
   class="st153"
   cx="122.5"
   cy="81.5"
   r="3.5"
   id="circle3"
   style="stroke-width:4.60707" />&#10;		<circle
   class="st153"
   cx="119.5"
   cy="95.5"
   r="1.5"
   id="circle4"
   style="stroke-width:4.60707" />&#10;		<circle
   class="st153"
   cx="116.5"
   cy="68.5"
   r="1.5"
   id="circle5"
   style="stroke-width:4.60707" />&#10;		<circle
   class="st153"
   cx="110"
   cy="86"
   r="6"
   id="circle6"
   style="stroke-width:4.60707" />&#10;		<path
   class="st17"
   d="m 104.64,11.41 c 0.24,0.99 0.36,2.02 0.36,3.09 0,2.33 -0.59,4.52 -1.63,6.44 C 101.09,25.15 96.63,28 91.5,28 84.04,28 78,21.96 78,14.5 c 0,-1.03 0.12,-2.04 0.33,-3 H 88.9 c -0.72,0.8 -1.15,1.85 -1.15,3 0,2.49 2.01,4.5 4.5,4.5 2.49,0 4.5,-2.01 4.5,-4.5 0,-1.15 -0.43,-2.2 -1.15,-3 h 8.65 z"
   id="path6"
   style="stroke-width:4.60707" />&#10;		<path
   class="st152"
   d="m 104.64,11.41 -0.39,0.09 H 95.6 88.9 78.33 C 79.7,5.48 85.07,1 91.5,1 c 6.39,0 11.75,4.44 13.14,10.41 z"
   id="path7"
   style="stroke-width:4.60707" />&#10;		<circle
   class="st153"
   cx="97.5"
   cy="78.5"
   r="3.5"
   id="circle7"
   style="stroke-width:4.60707" />&#10;		<path
   class="st153"
   d="m 95.6,11.5 c 0.72,0.8 1.15,1.85 1.15,3 0,2.49 -2.01,4.5 -4.5,4.5 -2.49,0 -4.5,-2.01 -4.5,-4.5 0,-1.15 0.43,-2.2 1.15,-3 z"
   id="path8"
   style="stroke-width:4.60707" />&#10;		<circle
   class="st153"
   cx="85.5"
   cy="89.5"
   r="1.5"
   id="circle8"
   style="stroke-width:4.60707" />&#10;		<path
   class="st17"
   d="M 77.67,11.5 C 77.88,12.46 78,13.47 78,14.5 78,21.96 71.96,28 64.5,28 59.37,28 54.91,25.15 52.63,20.94 51.59,19.02 51,16.83 51,14.5 c 0,-1.07 0.12,-2.1 0.36,-3.09 l 0.39,0.09 h 9.4 c -0.72,0.8 -1.15,1.85 -1.15,3 0,2.49 2.01,4.5 4.5,4.5 2.49,0 4.5,-2.01 4.5,-4.5 0,-1.15 -0.43,-2.2 -1.15,-3 z"
   id="path9"
   style="stroke-width:4.60707" />&#10;		<path
   class="st153"
   d="m 67.85,11.5 c 0.72,0.8 1.15,1.85 1.15,3 0,2.49 -2.01,4.5 -4.5,4.5 -2.49,0 -4.5,-2.01 -4.5,-4.5 0,-1.15 0.43,-2.2 1.15,-3 z"
   id="path10"
   style="stroke-width:4.60707" />&#10;		<path
   class="st154"
   d="M 47.36,124.43 47,125 v 8.01 c 0,4.41 -3.58,7.99 -7.99,7.99 H 21 c 0,-2.22 0.84,-4.25 2.23,-5.79 1.39,-1.53 3.33,-2.57 5.53,-2.79 L 35,131.9 v -0.36 C 29.6,127.04 23.91,121.13 18.55,114.21 3.62,94.95 -3.08,75.15 3.57,69.99 6.58,67.66 11.8,68.72 18,72.36 L 19,73 h 0.02 C 19,73.33 19,73.66 19,74 c 0,21.37 11.36,40.08 28.36,50.43 z"
   id="path11"
   style="stroke-width:4.60707" />&#10;		<g
   id="g13"
   style="stroke-width:4.60707">&#10;			<path
   class="st80"
   d="m 104.64,11.41 -0.39,0.09 h 0.406 c -0.007,-0.029 -0.009,-0.061 -0.016,-0.09 z"
   id="path12"
   style="stroke-width:4.60707" />&#10;			<path
   class="st80"
   d="m 84,14.5 c 0,-1.03 0.12,-2.04 0.33,-3 h -6 C 78.12,12.46 78,13.47 78,14.5 78,21.96 84.04,28 91.5,28 92.537,28 93.544,27.878 94.513,27.658 88.494,26.298 84,20.932 84,14.5 Z"
   id="path13"
   style="stroke-width:4.60707" />&#10;		</g>&#10;		<path
   class="st155"
   d="M 94.318,1.307 C 93.408,1.113 92.468,1 91.5,1 85.07,1 79.7,5.48 78.33,11.5 h 5.64 C 85.134,6.388 89.186,2.397 94.318,1.307 Z"
   id="path14"
   style="stroke-width:4.60707" />&#10;		<path
   class="st155"
   d="M 67.318,1.307 C 66.408,1.113 65.468,1 64.5,1 58.07,1 52.7,5.48 51.33,11.5 h 5.64 C 58.134,6.388 62.186,2.397 67.318,1.307 Z"
   id="path15"
   style="stroke-width:4.60707" />&#10;		<g
   id="g16"
   style="stroke-width:4.60707">&#10;			<path
   class="st80"
   d="M 58.63,20.94 C 57.59,19.02 57,16.83 57,14.5 c 0,-1.038 0.118,-2.037 0.344,-3 H 51.75 L 51.36,11.41 C 51.12,12.4 51,13.43 51,14.5 c 0,2.33 0.59,4.52 1.63,6.44 2.28,4.21 6.74,7.06 11.87,7.06 1.028,0 2.025,-0.125 2.987,-0.342 -3.828,-0.871 -7.038,-3.359 -8.857,-6.718 z"
   id="path16"
   style="stroke-width:4.60707" />&#10;		</g>&#10;		<path
   class="st156"
   d="m 122.5,78 c -0.35,0 -0.681,0.067 -1,0.163 1.441,0.433 2.5,1.757 2.5,3.337 0,1.58 -1.059,2.903 -2.5,3.337 0.319,0.096 0.65,0.163 1,0.163 1.93,0 3.5,-1.57 3.5,-3.5 0,-1.93 -1.57,-3.5 -3.5,-3.5 z"
   id="path17"
   style="stroke-width:4.60707" />&#10;		<g
   id="g18"
   style="stroke-width:4.60707">&#10;			<path
   class="st154"
   d="M 66.72,130.706 C 49.219,120.051 37.525,100.79 37.525,78.791 c 0,-0.35 0,-0.69 0.021,-1.029 C 37.883,56.926 48.718,38.648 64.996,27.975 64.83,27.981 64.667,28 64.5,28 59.37,28 54.91,25.15 52.63,20.94 L 52.05,21 C 32.75,30.46 19.39,50.15 19.02,73 19,73.33 19,73.66 19,74 c 0,21.37 11.36,40.08 28.36,50.43 1.19,0.72 2.4,1.4 3.64,2.04 l 1,11.53 -0.18,0.21 c -3.36,0.65 -5.82,2.77 -5.82,5.29 0,3.04 3.58,5.5 8.01,5.5 4.17,0 7.6,-2.2 7.97,-5 H 62 v -13.19 h 0.01 c 2.521,0.709 5.113,1.253 7.761,1.622 -1.033,-0.55 -2.051,-1.121 -3.051,-1.726 z"
   id="path18"
   style="stroke-width:4.60707" />&#10;		</g>&#10;		<path
   class="st156"
   d="m 110,80 c -0.519,0 -1.02,0.073 -1.5,0.197 2.584,0.668 4.5,3.012 4.5,5.803 0,2.791 -1.916,5.135 -4.5,5.803 0.48,0.124 0.981,0.197 1.5,0.197 3.31,0 6,-2.69 6,-6 0,-3.31 -2.69,-6 -6,-6 z"
   id="path19"
   style="stroke-width:4.60707" />&#10;		<path
   class="st156"
   d="m 97.5,75 c -0.35,0 -0.681,0.067 -1,0.163 1.441,0.434 2.5,1.757 2.5,3.337 0,1.58 -1.059,2.903 -2.5,3.337 0.319,0.096 0.65,0.163 1,0.163 1.93,0 3.5,-1.57 3.5,-3.5 0,-1.93 -1.57,-3.5 -3.5,-3.5 z"
   id="path20"
   style="stroke-width:4.60707" />&#10;	</g>&#10;	<g
   id="g28"
   style="stroke-width:4.60707">&#10;		<path
   class="st157"
   d="M 138.23,114.823 C 153.731,94.827 160.233,74.787 153.032,69.2 149.827,66.718 144.618,67.427 137.922,71.252 136.95,49.453 124.38,30.079 104.768,20.296 105.562,18.471 106,16.497 106,14.5 106,13.357 105.87,12.24 105.612,11.179 104.078,4.597 98.275,0 91.5,0 85.42,0 80.145,3.694 78,9.208 75.858,3.697 70.582,0 64.5,0 57.723,0 51.919,4.599 50.389,11.174 50.131,12.236 50,13.355 50,14.5 c 0,1.997 0.438,3.971 1.232,5.795 C 31.606,30.084 19.034,49.478 18.078,71.255 11.396,67.429 6.171,66.711 2.957,69.2 c -7.2,5.586 -0.698,25.626 14.802,45.623 4.778,6.168 9.99,11.741 15.163,16.247 l -4.262,0.355 c -2.371,0.237 -4.562,1.343 -6.172,3.115 C 20.884,136.317 20,138.612 20,141 c 0,0.553 0.447,1 1,1 h 18.01 c 4.957,0 8.99,-4.033 8.99,-8.99 v -7.047 c 0.678,0.391 1.359,0.774 2.041,1.134 l 0.723,10.334 C 47.328,138.376 45,140.785 45,143.5 c 0,3.645 3.958,6.5 9.01,6.5 4.544,0 8.306,-2.394 8.91,-5.608 C 62.971,144.272 63,144.14 63,144 v -11.896 c 4.865,1.253 9.904,1.896 15,1.896 5.101,0 10.139,-0.645 15,-1.902 V 144 c 0,0.139 0.029,0.271 0.08,0.391 0.604,3.214 4.366,5.609 8.91,5.609 5.052,0 9.01,-2.855 9.01,-6.5 0,-2.716 -2.328,-5.124 -5.764,-6.069 l 0.723,-10.334 c 0.687,-0.363 1.363,-0.743 2.031,-1.13 v 7.043 c 0,4.957 4.033,8.99 8.99,8.99 h 18.01 c 0.553,0 1,-0.447 1,-1 0,-2.389 -0.884,-4.684 -2.49,-6.462 -1.607,-1.771 -3.799,-2.876 -6.187,-3.114 l -4.245,-0.354 c 5.175,-4.508 10.387,-10.081 15.162,-16.247 z M 52,14.5 c 0,-0.683 0.073,-1.347 0.18,-2 h 7.2 c -0.247,0.632 -0.38,1.308 -0.38,2 0,3.033 2.468,5.5 5.5,5.5 3.032,0 5.5,-2.467 5.5,-5.5 0,-0.692 -0.133,-1.368 -0.38,-2 h 7.202 C 76.928,13.17 77,13.84 77,14.5 77,21.393 71.393,27 64.5,27 59.904,27 55.693,24.496 53.509,20.464 52.508,18.615 52,16.608 52,14.5 Z m 15.354,-2 C 67.766,13.084 68,13.776 68,14.5 68,16.43 66.43,18 64.5,18 62.57,18 61,16.43 61,14.5 c 0,-0.724 0.235,-1.416 0.646,-2 z m 11.823,0 h 7.953 c -0.247,0.632 -0.38,1.308 -0.38,2 0,3.033 2.468,5.5 5.5,5.5 3.032,0 5.5,-2.467 5.5,-5.5 0,-0.692 -0.133,-1.368 -0.38,-2 h 6.45 c 0.107,0.651 0.18,1.315 0.18,2 0,2.108 -0.508,4.115 -1.509,5.964 C 100.307,24.496 96.096,27 91.5,27 84.607,27 79,21.393 79,14.5 c 0,-0.661 0.072,-1.331 0.177,-2 z m 15.927,0 c 0.412,0.584 0.646,1.276 0.646,2 0,1.93 -1.57,3.5 -3.5,3.5 -1.93,0 -3.5,-1.57 -3.5,-3.5 0,-0.724 0.235,-1.416 0.646,-2 z M 91.5,2 c 5.443,0 10.154,3.442 11.841,8.5 H 79.654 C 81.351,5.439 86.052,2 91.5,2 Z m -27,0 c 5.45,0 10.153,3.441 11.847,8.5 H 52.659 C 54.346,5.442 59.057,2 64.5,2 Z M 46,133.01 c 0,3.854 -3.136,6.99 -6.99,6.99 H 22.065 c 0.201,-1.526 0.86,-2.961 1.905,-4.118 1.274,-1.403 3.011,-2.279 4.872,-2.466 l 6.24,-0.521 c 0.551,-0.046 0.959,-0.529 0.913,-1.079 -0.003,-0.035 -0.021,-0.063 -0.028,-0.097 0.063,-0.344 -0.041,-0.709 -0.328,-0.949 C 30.109,126.162 24.472,120.224 19.338,113.597 3.538,93.211 -1.255,74.999 4.183,70.781 c 2.544,-1.97 7.273,-1.104 13.278,2.421 l 0.548,0.351 C 18.007,73.702 18,73.848 18,74 18,94.802 28.467,113.71 46.044,124.782 46.027,124.854 46,124.923 46,125 Z m 58.541,-7.428 c -0.311,0.16 -0.515,0.471 -0.539,0.819 l -0.82,11.74 c -0.035,0.504 0.312,0.955 0.809,1.051 2.949,0.57 5.01,2.342 5.01,4.309 0,2.439 -3.21,4.5 -7.01,4.5 -3.607,0 -6.673,-1.814 -6.979,-4.131 -0.001,-0.011 -0.009,-0.02 -0.011,-0.031 V 121 c 0,-0.553 -0.447,-1 -1,-1 -0.553,0 -1,0.447 -1,1 v 9.03 c -9.704,2.602 -20.275,2.602 -30,0.006 V 121 c 0,-0.553 -0.447,-1 -1,-1 -0.553,0 -1,0.447 -1,1 v 22.838 c -0.002,0.011 -0.009,0.02 -0.011,0.031 -0.307,2.317 -3.373,4.131 -6.98,4.131 -3.8,0 -7.01,-2.061 -7.01,-4.5 0,-1.967 2.061,-3.738 5.01,-4.309 0.497,-0.096 0.844,-0.547 0.809,-1.051 l -0.82,-11.74 c -0.024,-0.349 -0.229,-0.659 -0.539,-0.819 -1.196,-0.617 -2.401,-1.293 -3.578,-2.006 C 30.423,112.947 20,94.414 20,74 20,73.68 19.999,73.37 20.02,73.016 20.372,51.261 32.67,31.782 52.139,22.078 54.762,26.364 59.427,29 64.5,29 70.641,29 75.89,25.156 78,19.753 80.11,25.156 85.359,29 91.5,29 c 5.073,0 9.738,-2.635 12.361,-6.922 19.469,9.704 31.767,29.183 32.121,50.981 C 136.001,73.37 136,73.68 136,74 c 0,20.416 -10.426,38.949 -27.891,49.577 -1.151,0.702 -2.351,1.377 -3.568,2.005 z m 15.809,5.189 c -0.287,0.24 -0.391,0.605 -0.328,0.949 -0.006,0.034 -0.025,0.062 -0.028,0.097 -0.046,0.55 0.362,1.033 0.913,1.079 l 6.224,0.52 c 1.878,0.188 3.614,1.063 4.887,2.465 1.046,1.159 1.706,2.594 1.907,4.12 H 116.98 c -3.854,0 -6.99,-3.136 -6.99,-6.99 V 125 c 0,-0.077 -0.027,-0.146 -0.044,-0.218 C 127.528,113.714 138,94.805 138,74 c 0,-0.155 -0.001,-0.306 -0.002,-0.455 l 0.499,-0.323 c 6.039,-3.543 10.768,-4.411 13.311,-2.442 5.438,4.219 0.646,22.431 -15.157,42.818 -5.132,6.624 -10.769,12.563 -16.301,17.173 z"
   id="path21"
   style="stroke-width:4.60707" />&#10;		<path
   class="st157"
   d="m 117,86 c 0,-3.859 -3.141,-7 -7,-7 -3.859,0 -7,3.141 -7,7 0,3.859 3.141,7 7,7 3.859,0 7,-3.14 7,-7 z m -12,0 c 0,-2.757 2.243,-5 5,-5 2.757,0 5,2.243 5,5 0,2.757 -2.243,5 -5,5 -2.757,0 -5,-2.243 -5,-5 z"
   id="path22"
   style="stroke-width:4.60707" />&#10;		<path
   class="st157"
   d="m 97.5,74 c -2.481,0 -4.5,2.019 -4.5,4.5 0,2.481 2.019,4.5 4.5,4.5 2.481,0 4.5,-2.019 4.5,-4.5 0,-2.481 -2.019,-4.5 -4.5,-4.5 z m 0,7 C 96.121,81 95,79.879 95,78.5 95,77.121 96.121,76 97.5,76 c 1.379,0 2.5,1.121 2.5,2.5 0,1.379 -1.121,2.5 -2.5,2.5 z"
   id="path23"
   style="stroke-width:4.60707" />&#10;		<path
   class="st157"
   d="m 122.5,86 c 2.481,0 4.5,-2.019 4.5,-4.5 0,-2.481 -2.019,-4.5 -4.5,-4.5 -2.481,0 -4.5,2.019 -4.5,4.5 0,2.481 2.019,4.5 4.5,4.5 z m 0,-7 c 1.379,0 2.5,1.121 2.5,2.5 0,1.379 -1.121,2.5 -2.5,2.5 -1.379,0 -2.5,-1.121 -2.5,-2.5 0,-1.379 1.121,-2.5 2.5,-2.5 z"
   id="path24"
   style="stroke-width:4.60707" />&#10;		<path
   class="st157"
   d="M 85.5,87 C 84.121,87 83,88.121 83,89.5 83,90.879 84.121,92 85.5,92 86.879,92 88,90.879 88,89.5 88,88.121 86.879,87 85.5,87 Z m 0,3 C 85.225,90 85,89.775 85,89.5 85,89.225 85.225,89 85.5,89 c 0.275,0 0.5,0.225 0.5,0.5 0,0.275 -0.225,0.5 -0.5,0.5 z"
   id="path25"
   style="stroke-width:4.60707" />&#10;		<path
   class="st157"
   d="m 116.5,71 c 1.379,0 2.5,-1.122 2.5,-2.5 0,-1.378 -1.121,-2.5 -2.5,-2.5 -1.379,0 -2.5,1.122 -2.5,2.5 0,1.378 1.121,2.5 2.5,2.5 z m 0,-3 c 0.275,0 0.5,0.224 0.5,0.5 0,0.276 -0.225,0.5 -0.5,0.5 -0.275,0 -0.5,-0.224 -0.5,-0.5 0,-0.276 0.225,-0.5 0.5,-0.5 z"
   id="path26"
   style="stroke-width:4.60707" />&#10;		<path
   class="st157"
   d="m 119.5,93 c -1.379,0 -2.5,1.121 -2.5,2.5 0,1.379 1.121,2.5 2.5,2.5 1.379,0 2.5,-1.121 2.5,-2.5 0,-1.379 -1.121,-2.5 -2.5,-2.5 z m 0,3 c -0.275,0 -0.5,-0.225 -0.5,-0.5 0,-0.275 0.225,-0.5 0.5,-0.5 0.275,0 0.5,0.225 0.5,0.5 0,0.275 -0.225,0.5 -0.5,0.5 z"
   id="path27"
   style="stroke-width:4.60707" />&#10;		<path
   class="st157"
   d="m 106.358,45.046 c 1.478,0.624 3.036,0.958 4.625,0.958 0.729,0 1.464,-0.067 2.196,-0.201 0.544,-0.1 0.903,-0.621 0.804,-1.164 -0.099,-0.543 -0.618,-0.897 -1.163,-0.804 -2.236,0.411 -4.477,0.066 -6.484,-0.991 -2.127,-1.121 -3.78,-2.97 -4.654,-5.209 -0.201,-0.515 -0.781,-0.768 -1.296,-0.568 -0.514,0.201 -0.769,0.781 -0.567,1.295 0.933,2.388 2.607,4.404 4.76,5.768 C 98.611,54.701 88.729,61 78,61 67.266,61 57.384,54.702 51.423,44.132 c 2.15,-1.359 3.823,-3.375 4.759,-5.769 0.201,-0.514 -0.054,-1.094 -0.567,-1.295 -0.518,-0.2 -1.096,0.053 -1.296,0.568 -0.877,2.245 -2.529,4.095 -4.656,5.21 -2,1.058 -4.24,1.401 -6.482,0.99 -0.539,-0.094 -1.064,0.261 -1.163,0.804 -0.1,0.543 0.26,1.064 0.804,1.164 0.716,0.131 1.439,0.196 2.162,0.196 1.601,0 3.185,-0.335 4.659,-0.953 C 55.957,56.295 66.508,63 78,63 c 11.486,0 22.036,-6.705 28.358,-17.954 z"
   id="path28"
   style="stroke-width:4.60707" />&#10;	</g>&#10;</g>&#10;<text
   xml:space="preserve"
   style="font-style:normal;font-weight:normal;font-size:28px;line-height:1.25;font-family:sans-serif;letter-spacing:0px;word-spacing:0px;fill:#a0c863;fill-opacity:1;stroke:none"
   x="37.421875"
   y="27.382812"
   id="text29"><tspan
     sodipodi:role="line"
     id="tspan29"
     x="37.421875"
     y="27.382812"
     style="font-style:normal;font-variant:normal;font-weight:normal;font-stretch:normal;font-size:28px;line-height:1.25;font-family:SimHei;-inkscape-font-specification:SimHei;fill:#a0c863;fill-opacity:1"><tspan
   style="font-style:normal;font-variant:normal;font-weight:normal;font-stretch:normal;line-height:1.25;font-family:SimHei;-inkscape-font-specification:SimHei;fill:#000000;fill-opacity:1"
   id="tspan31">FROG</tspan>NG</tspan></text></svg>
